<?xml version="1.0" encoding="utf-8"?>

<!DOCTYPE svg PUBLIC "-//W3C//DTD SVG 1.1//EN" "http://www.w3.org/Graphics/SVG/1.1/DTD/svg11.dtd">
<!-- Uploaded to: SVG Repo, www.svgrepo.com, Generator: SVG Repo Mixer Tools -->
<svg height="800px" width="800px" version="1.1" id="_x32_" xmlns="http://www.w3.org/2000/svg" xmlns:xlink="http://www.w3.org/1999/xlink" 
	 viewBox="0 0 512 512"  xml:space="preserve">
<style type="text/css">
	.st0{fill:#000000;}
</style>
<g>
	<path class="st0" d="M61.936,345.186h388.128c14.81,0,26.822-12.019,26.822-26.828V89.967c0-14.797-12.012-26.81-26.822-26.81
		H61.936c-14.81,0-26.81,12.012-26.81,26.81v228.39C35.127,333.167,47.126,345.186,61.936,345.186z M76.126,99.189h359.749v203.649
		H76.126V99.189z"/>
	<path class="st0" d="M508.025,419.609l-47.841-42.468c-3.076-2.722-7.5-4.266-12.171-4.266H63.98
		c-4.664,0-9.095,1.544-12.164,4.266L3.968,419.609C1.405,421.874,0,424.792,0,427.811v14.797c0,3.456,3.608,6.234,8.064,6.234
		h495.874c4.468,0,8.063-2.778,8.063-6.234v-14.797C512,424.792,510.588,421.874,508.025,419.609z M201.137,424.621l13.848-18.721
		h87.733l13.829,18.721H201.137z"/>
	<path class="st0" d="M189.143,200.96l-4.442-0.633c-11.374-1.588-15.449-5.55-15.449-11.354c0-6.545,4.69-11.241,13.221-11.241
		c7.038,0,13.342,2.095,20.139,6.544l1.728-0.373l5.936-9.146l-0.253-1.721c-6.671-5.069-16.683-8.392-27.177-8.392
		c-17.297,0-28.417,10.113-28.417,25.322c0,13.956,9.139,21.74,25.322,23.962l4.456,0.62c11.608,1.601,15.31,5.55,15.31,11.607
		c0,7.032-5.804,12.108-15.81,12.108c-9.392,0-17.423-4.57-22.854-8.886l-1.728,0.114l-7.664,8.899l0.246,1.861
		c6.551,6.17,18.538,11.101,30.886,11.101c20.892,0,31.638-11.101,31.638-26.05C214.232,210.833,205.327,203.168,189.143,200.96z"/>
	<polygon class="st0" points="229.928,165.986 228.693,167.219 228.693,248.776 229.928,250.01 282.554,250.01 283.794,248.776 
		283.794,238.149 282.554,236.915 244.016,236.915 243.275,236.162 243.275,214.915 244.016,214.175 276.51,214.175 277.75,212.94 
		277.75,202.314 276.51,201.08 244.016,201.08 243.275,200.326 243.275,179.827 244.016,179.087 282.554,179.087 283.794,177.846 
		283.794,167.219 282.554,165.986 	"/>
	<path class="st0" d="M328.54,164.644c-14.462,0-25.329,6.905-29.658,20.246c-1.728,5.19-2.228,9.886-2.228,23.107
		c0,13.222,0.5,17.918,2.228,23.108c4.329,13.342,15.196,20.246,29.658,20.246c14.576,0,25.436-6.905,29.766-20.246
		c1.734-5.19,2.234-9.886,2.234-23.108c0-13.221-0.5-17.917-2.234-23.107C353.977,171.549,343.116,164.644,328.54,164.644z
		 M344.224,227.263c-2.348,6.81-7.284,11-15.683,11c-8.284,0-13.221-4.19-15.576-11c-0.981-3.089-1.481-7.412-1.481-19.266
		c0-11.987,0.5-16.177,1.481-19.278c2.354-6.797,7.291-10.987,15.576-10.987c8.399,0,13.335,4.19,15.683,10.987
		c0.981,3.101,1.494,7.291,1.494,19.278C345.718,219.852,345.205,224.174,344.224,227.263z"/>
</g>
</svg>